<svg width="431" height="78" viewBox="0 0 431 78" fill="none" xmlns="http://www.w3.org/2000/svg">
<path d="M4.96249 65.2197C4.01938 65.2197 3.26489 64.9368 2.69902 64.3709C2.17088 63.8428 1.9068 63.0694 1.9068 62.0509V55.1473C1.9068 52.9593 3.00082 51.8653 5.18884 51.8653H8.3577L4.17028 53.3365C5.15111 52.0162 5.92447 50.6392 6.49033 49.2057C7.0562 47.7721 7.47117 46.1311 7.73524 44.2826C7.99932 42.3964 8.13135 40.1707 8.13135 37.6054V33.7009C8.13135 32.4183 8.47087 31.4374 9.14991 30.7584C9.82896 30.0793 10.8098 29.7398 12.0924 29.7398H25.7298C27.0125 29.7398 27.9933 30.0793 28.6724 30.7584C29.3514 31.4374 29.6909 32.4183 29.6909 33.7009V55.1473L26.4089 51.8653H30.9358C31.9921 51.8653 32.8032 52.1482 33.3691 52.7141C33.9349 53.2422 34.2179 54.0533 34.2179 55.1473V62.0509C34.2179 64.1635 33.2182 65.2197 31.2188 65.2197C30.2379 65.2197 29.4834 64.9368 28.9553 64.3709C28.4649 63.8428 28.2197 63.0694 28.2197 62.0509V57.4108H7.905V62.0509C7.905 64.1635 6.92417 65.2197 4.96249 65.2197ZM11.47 51.8653H23.0703V35.1722H14.1861V39.2464C14.1861 41.623 13.9409 43.9242 13.4505 46.15C12.9978 48.3757 12.3376 50.2808 11.47 51.8653ZM48.6002 57.9766C46.6008 57.9766 44.8089 57.5994 43.2244 56.8449C41.6777 56.0527 40.4517 54.9964 39.5463 53.676C38.6786 52.3557 38.2448 50.8656 38.2448 49.2057C38.2448 47.1686 38.773 45.5653 39.8292 44.3958C40.8855 43.1886 42.602 42.321 44.9786 41.7928C47.3553 41.2647 50.543 41.0006 54.5418 41.0006H57.3711V45.0748H54.5984C52.2595 45.0748 50.3921 45.188 48.9963 45.4144C47.6005 45.6407 46.6008 46.0368 45.9972 46.6027C45.4313 47.1308 45.1484 47.8853 45.1484 48.8662C45.1484 50.1111 45.5822 51.1296 46.4499 51.9218C47.3176 52.7141 48.5247 53.1102 50.0715 53.1102C51.3164 53.1102 52.4104 52.8272 53.3535 52.2614C54.3343 51.6578 55.1077 50.8467 55.6735 49.8281C56.2394 48.8096 56.5223 47.6401 56.5223 46.3198V39.8123C56.5223 37.926 56.1074 36.568 55.2774 35.738C54.4475 34.9081 53.0517 34.4931 51.09 34.4931C49.996 34.4931 48.8077 34.6251 47.525 34.8892C46.2801 35.1533 44.9598 35.606 43.564 36.2473C42.8472 36.5868 42.2059 36.6811 41.64 36.5302C41.1119 36.3793 40.6969 36.0775 40.3951 35.6248C40.0933 35.1344 39.9424 34.6063 39.9424 34.0404C39.9424 33.4746 40.0933 32.9275 40.3951 32.3994C40.6969 31.8335 41.2062 31.4186 41.923 31.1545C43.6583 30.4377 45.3182 29.9284 46.9026 29.6266C48.5247 29.3249 49.996 29.174 51.3164 29.174C54.0325 29.174 56.2583 29.5889 57.9936 30.4189C59.7667 31.2488 61.087 32.5126 61.9547 34.2102C62.8223 35.8701 63.2562 38.0204 63.2562 40.6611V54.2419C63.2562 55.4114 62.9732 56.3168 62.4074 56.9581C61.8415 57.5617 61.0304 57.8635 59.9741 57.8635C58.9179 57.8635 58.0879 57.5617 57.4843 56.9581C56.9185 56.3168 56.6355 55.4114 56.6355 54.2419V51.5257H57.0882C56.8241 52.8461 56.296 53.9967 55.5038 54.9775C54.7493 55.9206 53.7873 56.6563 52.6179 57.1844C51.4484 57.7126 50.1092 57.9766 48.6002 57.9766ZM93.3347 57.8635C92.203 57.8635 91.3353 57.5617 90.7317 56.9581C90.1281 56.3168 89.8263 55.4114 89.8263 54.2419V35.2853H81.112V38.5108C81.112 41.1138 80.9422 43.4527 80.6027 45.5275C80.3009 47.6024 79.8105 49.4132 79.1314 50.9599C78.4901 52.5066 77.6413 53.8081 76.585 54.8644C75.5287 55.9206 74.265 56.7694 72.7937 57.4108C72.0015 57.7503 71.2659 57.8446 70.5868 57.6937C69.9455 57.5428 69.3985 57.2599 68.9458 56.8449C68.5308 56.3922 68.2668 55.8641 68.1536 55.2605C68.0404 54.6192 68.1159 53.9967 68.3799 53.3931C68.644 52.7895 69.1533 52.2802 69.9078 51.8653C70.8509 51.3371 71.6242 50.6769 72.2278 49.8847C72.8314 49.0925 73.303 48.1494 73.6425 47.0554C73.982 45.9236 74.2272 44.641 74.3781 43.2075C74.529 41.7739 74.6045 40.1329 74.6045 38.2844V33.7009C74.6045 32.4183 74.944 31.4374 75.623 30.7584C76.3021 30.0793 77.2829 29.7398 78.5656 29.7398H92.9386C94.2212 29.7398 95.2021 30.0793 95.8811 30.7584C96.5602 31.4374 96.8997 32.4183 96.8997 33.7009V54.2419C96.8997 55.4114 96.579 56.3168 95.9377 56.9581C95.3341 57.5617 94.4664 57.8635 93.3347 57.8635ZM118.611 57.9766C115.48 57.9766 112.782 57.3919 110.519 56.2224C108.255 55.053 106.501 53.3931 105.256 51.2428C104.049 49.0925 103.446 46.5461 103.446 43.6036C103.446 40.7365 104.03 38.2278 105.2 36.0775C106.407 33.9272 108.048 32.2485 110.123 31.0413C112.235 29.7964 114.631 29.174 117.309 29.174C119.271 29.174 121.025 29.4946 122.572 30.1359C124.156 30.7772 125.496 31.7015 126.59 32.9087C127.721 34.1159 128.57 35.5871 129.136 37.3225C129.74 39.0201 130.041 40.944 130.041 43.0943C130.041 43.7733 129.796 44.3015 129.306 44.6787C128.853 45.0183 128.193 45.188 127.325 45.188H109.161V41.1138H125.062L124.156 41.9626C124.156 40.2272 123.892 38.7748 123.364 37.6054C122.874 36.4359 122.138 35.5494 121.157 34.9458C120.214 34.3045 119.026 33.9838 117.592 33.9838C116.008 33.9838 114.65 34.3611 113.518 35.1156C112.424 35.8323 111.575 36.8698 110.972 38.2278C110.406 39.5482 110.123 41.1326 110.123 42.9811V43.3772C110.123 46.4707 110.84 48.7907 112.273 50.3374C113.744 51.8464 115.895 52.6009 118.724 52.6009C119.705 52.6009 120.799 52.4877 122.006 52.2614C123.251 51.9973 124.42 51.5635 125.514 50.9599C126.307 50.5072 127.005 50.3186 127.608 50.394C128.212 50.4317 128.683 50.6392 129.023 51.0165C129.4 51.3937 129.626 51.8653 129.702 52.4311C129.777 52.9593 129.664 53.5063 129.362 54.0721C129.098 54.638 128.627 55.1284 127.948 55.5434C126.627 56.3733 125.1 56.9958 123.364 57.4108C121.667 57.788 120.082 57.9766 118.611 57.9766ZM139.925 68.0491C138.793 68.0491 137.926 67.7473 137.322 67.1437C136.719 66.5401 136.417 65.6536 136.417 64.4841V32.8521C136.417 31.6826 136.719 30.7961 137.322 30.1925C137.926 29.5889 138.775 29.2871 139.869 29.2871C141 29.2871 141.868 29.5889 142.472 30.1925C143.075 30.7961 143.377 31.6826 143.377 32.8521V37.2659L142.754 35.5683C143.32 33.6443 144.471 32.0976 146.206 30.9281C147.979 29.7587 150.035 29.174 152.374 29.174C154.789 29.174 156.901 29.7587 158.712 30.9281C160.56 32.0976 161.994 33.7575 163.013 35.9078C164.031 38.0204 164.54 40.5668 164.54 43.547C164.54 46.4895 164.031 49.0548 163.013 51.2428C161.994 53.3931 160.579 55.053 158.769 56.2224C156.958 57.3919 154.826 57.9766 152.374 57.9766C150.073 57.9766 148.055 57.4108 146.319 56.279C144.584 55.1096 143.415 53.6006 142.811 51.7521H143.49V64.4841C143.49 65.6536 143.169 66.5401 142.528 67.1437C141.924 67.7473 141.057 68.0491 139.925 68.0491ZM150.394 52.6009C151.789 52.6009 153.016 52.2614 154.072 51.5823C155.128 50.9033 155.939 49.9036 156.505 48.5832C157.109 47.2251 157.41 45.5464 157.41 43.547C157.41 40.529 156.769 38.2844 155.486 36.8132C154.204 35.3042 152.506 34.5497 150.394 34.5497C148.998 34.5497 147.772 34.8892 146.716 35.5683C145.659 36.2096 144.829 37.2093 144.226 38.5674C143.66 39.8877 143.377 41.5476 143.377 43.547C143.377 46.5272 144.018 48.7907 145.301 50.3374C146.583 51.8464 148.281 52.6009 150.394 52.6009Z" fill="white"/>
<path d="M181.001 57.8069C180.774 57.8069 180.548 57.7314 180.321 57.5805C180.133 57.4296 180.02 57.2221 179.982 56.9581C179.982 56.6563 180.133 56.3168 180.435 55.9395L191.073 42.5284V43.9997L181.114 31.5506C180.812 31.1734 180.661 30.8527 180.661 30.5886C180.699 30.2868 180.812 30.0605 181.001 29.9096C181.227 29.7587 181.453 29.6832 181.68 29.6832C181.981 29.6832 182.245 29.7587 182.472 29.9096C182.698 30.0228 182.906 30.2114 183.094 30.4755L192.374 42.1323H191.526L200.806 30.4755C200.995 30.2114 201.202 30.0228 201.428 29.9096C201.655 29.7587 201.919 29.6832 202.221 29.6832C202.447 29.6832 202.654 29.7587 202.843 29.9096C203.069 30.0605 203.183 30.2868 203.183 30.5886C203.22 30.8527 203.088 31.1734 202.786 31.5506L192.94 43.8299V42.7548L203.465 55.9395C203.767 56.3168 203.899 56.6563 203.862 56.9581C203.862 57.2221 203.748 57.4296 203.522 57.5805C203.333 57.7314 203.126 57.8069 202.9 57.8069C202.598 57.8069 202.315 57.7314 202.051 57.5805C201.824 57.4674 201.598 57.2787 201.372 57.0147L191.469 44.5656H192.374L182.472 57.0147C182.283 57.2787 182.057 57.4674 181.793 57.5805C181.566 57.7314 181.302 57.8069 181.001 57.8069ZM216.471 67.9359C216.132 67.9359 215.868 67.8416 215.679 67.653C215.49 67.4644 215.396 67.2191 215.396 66.9173C215.396 66.6156 215.453 66.3138 215.566 66.012L219.47 57.0147V58.1464L208.153 31.6638C208.002 31.2865 207.945 30.9659 207.983 30.7018C208.021 30.4 208.134 30.1548 208.323 29.9662C208.549 29.7775 208.851 29.6832 209.228 29.6832C209.568 29.6832 209.813 29.7775 209.964 29.9662C210.152 30.1171 210.322 30.3434 210.473 30.6452L221.224 56.6186H219.866L230.674 30.6452C230.825 30.3057 230.976 30.0605 231.127 29.9096C231.316 29.7587 231.599 29.6832 231.976 29.6832C232.353 29.6832 232.617 29.7775 232.768 29.9662C232.957 30.1548 233.051 30.4 233.051 30.7018C233.089 30.9659 233.032 31.2677 232.881 31.6072L217.829 66.9173C217.678 67.2946 217.509 67.5587 217.32 67.7096C217.131 67.8605 216.848 67.9359 216.471 67.9359ZM250.36 57.8635C247.757 57.8635 245.512 57.2599 243.626 56.0527C241.778 54.8455 240.344 53.1668 239.326 51.0165C238.345 48.8662 237.854 46.3575 237.854 43.4904C237.854 41.3401 238.137 39.4162 238.703 37.7186C239.269 35.9832 240.08 34.512 241.136 33.3048C242.23 32.0976 243.551 31.1734 245.097 30.532C246.644 29.8907 248.398 29.5701 250.36 29.5701C251.794 29.5701 253.246 29.8341 254.717 30.3623C256.226 30.8527 257.565 31.6826 258.735 32.8521C258.923 33.0407 259.018 33.2482 259.018 33.4746C259.056 33.7009 259.018 33.9272 258.905 34.1536C258.829 34.3422 258.697 34.4931 258.509 34.6063C258.32 34.7195 258.094 34.776 257.829 34.776C257.565 34.7383 257.301 34.5874 257.037 34.3234C255.943 33.3425 254.812 32.6823 253.642 32.3428C252.51 31.9656 251.397 31.7769 250.303 31.7769C248.681 31.7769 247.248 32.041 246.003 32.5692C244.758 33.0973 243.702 33.8707 242.834 34.8892C242.004 35.8701 241.363 37.0961 240.91 38.5674C240.495 40.0009 240.288 41.6608 240.288 43.547C240.288 47.3195 241.155 50.2808 242.891 52.4311C244.626 54.5814 247.097 55.6566 250.303 55.6566C251.397 55.6566 252.51 55.4868 253.642 55.1473C254.812 54.77 255.943 54.091 257.037 53.1102C257.301 52.8461 257.565 52.7141 257.829 52.7141C258.094 52.6763 258.32 52.7141 258.509 52.8272C258.697 52.9404 258.829 53.1102 258.905 53.3365C259.018 53.5251 259.056 53.7326 259.018 53.959C259.018 54.1853 258.923 54.3928 258.735 54.5814C257.565 55.7509 256.226 56.5997 254.717 57.1278C253.246 57.6183 251.794 57.8635 250.36 57.8635ZM274.01 57.8635C272.237 57.8635 270.633 57.5051 269.2 56.7883C267.766 56.0715 266.635 55.1096 265.805 53.9024C264.975 52.6575 264.56 51.2805 264.56 49.7715C264.56 47.7344 265.05 46.15 266.031 45.0183C267.05 43.8488 268.766 43.0377 271.18 42.585C273.633 42.0946 276.99 41.8494 281.253 41.8494H283.573V43.9431H281.366C277.631 43.9431 274.727 44.1129 272.652 44.4524C270.615 44.7542 269.181 45.3201 268.351 46.15C267.559 46.9422 267.163 48.0739 267.163 49.5452C267.163 51.356 267.785 52.8461 269.03 54.0156C270.313 55.1473 272.029 55.7132 274.18 55.7132C275.915 55.7132 277.424 55.2982 278.706 54.4683C280.027 53.6006 281.064 52.45 281.819 51.0165C282.573 49.5452 282.95 47.8853 282.95 46.0368V39.5859C282.95 36.8698 282.422 34.8892 281.366 33.6443C280.31 32.3994 278.612 31.7769 276.273 31.7769C274.764 31.7769 273.312 31.9844 271.916 32.3994C270.558 32.8144 269.124 33.4557 267.615 34.3234C267.276 34.512 266.974 34.5874 266.71 34.5497C266.484 34.512 266.295 34.4177 266.144 34.2668C265.993 34.0781 265.88 33.8707 265.805 33.6443C265.767 33.3802 265.786 33.135 265.861 32.9087C265.974 32.6823 266.163 32.4937 266.427 32.3428C267.974 31.3997 269.577 30.7018 271.237 30.2491C272.897 29.7964 274.538 29.5701 276.16 29.5701C278.235 29.5701 279.951 29.9284 281.309 30.6452C282.668 31.362 283.667 32.456 284.309 33.9272C284.988 35.3985 285.327 37.2847 285.327 39.5859V56.5054C285.327 56.8826 285.233 57.1844 285.044 57.4108C284.856 57.6371 284.573 57.7503 284.195 57.7503C283.818 57.7503 283.516 57.6371 283.29 57.4108C283.101 57.1844 283.007 56.8826 283.007 56.5054V50.5638H283.63C283.252 52.0727 282.611 53.3742 281.706 54.4683C280.8 55.5623 279.687 56.4111 278.367 57.0147C277.084 57.5805 275.632 57.8635 274.01 57.8635ZM296.222 57.7503C296.033 57.7503 295.845 57.7126 295.656 57.6371C295.505 57.5617 295.373 57.4296 295.26 57.241C295.184 57.0147 295.147 56.7506 295.147 56.4488V30.9281C295.147 30.5132 295.241 30.2114 295.43 30.0228C295.656 29.7964 295.939 29.6832 296.278 29.6832C296.618 29.6832 296.882 29.7964 297.071 30.0228C297.259 30.2114 297.354 30.5132 297.354 30.9281V55.6H295.995L314.726 30.4755C314.914 30.1737 315.122 29.9662 315.348 29.853C315.575 29.7398 315.839 29.6832 316.14 29.6832C316.367 29.6832 316.555 29.721 316.706 29.7964C316.857 29.8719 316.97 30.0039 317.046 30.1925C317.159 30.3811 317.216 30.6452 317.216 30.9847V56.5054C317.216 56.8826 317.121 57.1844 316.933 57.4108C316.744 57.6371 316.48 57.7503 316.14 57.7503C315.763 57.7503 315.48 57.6371 315.292 57.4108C315.103 57.1844 315.009 56.8826 315.009 56.5054V31.8335H316.367L297.637 56.9581C297.448 57.2221 297.24 57.4108 297.014 57.5239C296.788 57.6748 296.524 57.7503 296.222 57.7503ZM328.386 57.7503C328.009 57.7503 327.707 57.6371 327.481 57.4108C327.292 57.1844 327.198 56.8826 327.198 56.5054V30.9281C327.198 30.5132 327.292 30.2114 327.481 30.0228C327.707 29.7964 328.009 29.6832 328.386 29.6832C328.763 29.6832 329.046 29.7964 329.235 30.0228C329.461 30.2114 329.574 30.5132 329.574 30.9281V42.1889H347.003V30.9281C347.003 30.5132 347.097 30.2114 347.286 30.0228C347.512 29.7964 347.814 29.6832 348.192 29.6832C348.569 29.6832 348.852 29.7964 349.04 30.0228C349.267 30.2114 349.38 30.5132 349.38 30.9281V56.5054C349.38 56.8826 349.267 57.1844 349.04 57.4108C348.852 57.6371 348.569 57.7503 348.192 57.7503C347.814 57.7503 347.512 57.6371 347.286 57.4108C347.097 57.1844 347.003 56.8826 347.003 56.5054V44.2826H329.574V56.5054C329.574 56.8826 329.48 57.1844 329.292 57.4108C329.103 57.6371 328.801 57.7503 328.386 57.7503ZM369.771 57.8635C367.282 57.8635 365.112 57.2787 363.264 56.1093C361.453 54.9398 360.038 53.2988 359.02 51.1862C358.039 49.0736 357.549 46.5838 357.549 43.7168C357.549 41.5665 357.832 39.6236 358.397 37.8883C358.963 36.153 359.774 34.6629 360.831 33.418C361.925 32.1731 363.226 31.2299 364.735 30.5886C366.244 29.9096 367.923 29.5701 369.771 29.5701C372.261 29.5701 374.412 30.1548 376.222 31.3243C378.071 32.4937 379.485 34.1347 380.466 36.2473C381.485 38.3599 381.994 40.8497 381.994 43.7168C381.994 45.8671 381.711 47.8099 381.145 49.5452C380.579 51.2805 379.75 52.7706 378.656 54.0156C377.599 55.2605 376.317 56.2224 374.808 56.9015C373.336 57.5428 371.658 57.8635 369.771 57.8635ZM369.771 55.6566C371.771 55.6566 373.506 55.185 374.977 54.2419C376.449 53.2988 377.58 51.9407 378.373 50.1677C379.165 48.3569 379.561 46.2066 379.561 43.7168C379.561 39.9443 378.674 37.0207 376.901 34.9458C375.166 32.8332 372.789 31.7769 369.771 31.7769C367.772 31.7769 366.037 32.2485 364.565 33.1916C363.094 34.1347 361.962 35.4928 361.17 37.2659C360.378 39.0389 359.982 41.1892 359.982 43.7168C359.982 47.4892 360.868 50.4317 362.641 52.5443C364.415 54.6192 366.791 55.6566 369.771 55.6566ZM391.554 57.4108C391.102 57.4108 390.743 57.2976 390.479 57.0712C390.253 56.8072 390.14 56.4488 390.14 55.9961V31.4374C390.14 30.9847 390.253 30.6452 390.479 30.4189C390.743 30.1548 391.102 30.0228 391.554 30.0228H402.193C404.192 30.0228 405.852 30.3057 407.172 30.8716C408.493 31.3997 409.492 32.1919 410.171 33.2482C410.85 34.3045 411.19 35.6437 411.19 37.2659C411.19 39.0389 410.567 40.529 409.322 41.7362C408.078 42.9434 406.455 43.6413 404.456 43.8299V43.1509C406.682 43.1509 408.493 43.7922 409.888 45.0748C411.322 46.3198 412.039 47.9419 412.039 49.9413C412.039 52.2425 411.209 54.0721 409.549 55.4302C407.889 56.7506 405.588 57.4108 402.645 57.4108H391.554ZM392.516 55.3736H402.872C405.022 55.3736 406.682 54.9021 407.851 53.959C409.021 53.0159 409.605 51.6766 409.605 49.9413C409.605 48.1683 409.021 46.829 407.851 45.9236C406.682 44.9805 405.022 44.509 402.872 44.509H392.516V55.3736ZM392.516 42.4719H402.419C404.418 42.4719 405.965 42.0192 407.059 41.1138C408.191 40.1707 408.757 38.888 408.757 37.2659C408.757 35.606 408.191 34.3234 407.059 33.418C405.965 32.5126 404.418 32.0599 402.419 32.0599H392.516V42.4719Z" fill="white"/>
<rect x="420" y="53" width="4.71557" height="4.71557" fill="#F13024"/>
</svg>
